<svg width="92" height="37" viewBox="0 0 92 37" fill="none" xmlns="http://www.w3.org/2000/svg">
<path d="M3.50069 22.7067C2.22445 21.9699 2.22445 20.1278 3.50069 19.3909L21.6871 8.89099C22.9633 8.15415 24.5586 9.0752 24.5586 10.5489L24.5586 31.5487C24.5586 33.0224 22.9633 33.9435 21.6871 33.2066L3.50069 22.7067Z" fill="#623CEA"/>
<path d="M3.48442 18.6134C2.18324 17.9216 2.11896 16.0806 3.3687 15.2997L21.1776 4.17146C22.4273 3.39053 24.0538 4.25534 24.1053 5.72812L24.8381 26.7152C24.8896 28.188 23.3274 29.1641 22.0262 28.4723L3.48442 18.6134Z" fill="#623CEA" fill-opacity="0.49"/>
<path d="M39.382 25.216C38.302 25.216 37.384 25.024 36.628 24.64C35.884 24.256 35.242 23.752 34.702 23.128L36.304 21.58C36.736 22.084 37.216 22.468 37.744 22.732C38.284 22.996 38.878 23.128 39.526 23.128C40.258 23.128 40.81 22.972 41.182 22.66C41.554 22.336 41.74 21.904 41.74 21.364C41.74 20.944 41.62 20.602 41.38 20.338C41.14 20.074 40.69 19.882 40.03 19.762L38.842 19.582C36.334 19.186 35.08 17.968 35.08 15.928C35.08 15.364 35.182 14.854 35.386 14.398C35.602 13.942 35.908 13.552 36.304 13.228C36.7 12.904 37.174 12.658 37.726 12.49C38.29 12.31 38.926 12.22 39.634 12.22C40.582 12.22 41.41 12.376 42.118 12.688C42.826 13 43.432 13.462 43.936 14.074L42.316 15.604C42.004 15.22 41.626 14.908 41.182 14.668C40.738 14.428 40.18 14.308 39.508 14.308C38.824 14.308 38.308 14.44 37.96 14.704C37.624 14.956 37.456 15.316 37.456 15.784C37.456 16.264 37.594 16.618 37.87 16.846C38.146 17.074 38.59 17.242 39.202 17.35L40.372 17.566C41.644 17.794 42.58 18.202 43.18 18.79C43.792 19.366 44.098 20.176 44.098 21.22C44.098 21.82 43.99 22.366 43.774 22.858C43.57 23.338 43.264 23.758 42.856 24.118C42.46 24.466 41.968 24.736 41.38 24.928C40.804 25.12 40.138 25.216 39.382 25.216ZM46.3359 11.68H48.6399V17.17H48.7299C48.9219 16.666 49.2219 16.246 49.6299 15.91C50.0499 15.562 50.6259 15.388 51.3579 15.388C52.3299 15.388 53.0739 15.706 53.5899 16.342C54.1059 16.978 54.3639 17.884 54.3639 19.06V25H52.0599V19.294C52.0599 18.622 51.9399 18.118 51.6999 17.782C51.4599 17.446 51.0639 17.278 50.5119 17.278C50.2719 17.278 50.0379 17.314 49.8099 17.386C49.5939 17.446 49.3959 17.542 49.2159 17.674C49.0479 17.794 48.9099 17.95 48.8019 18.142C48.6939 18.322 48.6399 18.538 48.6399 18.79V25H46.3359V11.68ZM62.5339 23.434H62.4439C62.3599 23.674 62.2459 23.902 62.1019 24.118C61.9699 24.322 61.7959 24.508 61.5799 24.676C61.3759 24.844 61.1239 24.976 60.8239 25.072C60.5359 25.168 60.1999 25.216 59.8159 25.216C58.8439 25.216 58.0999 24.898 57.5839 24.262C57.0679 23.626 56.8099 22.72 56.8099 21.544V15.604H59.1139V21.31C59.1139 21.958 59.2399 22.456 59.4919 22.804C59.7439 23.14 60.1459 23.308 60.6979 23.308C60.9259 23.308 61.1479 23.278 61.3639 23.218C61.5919 23.158 61.7899 23.068 61.9579 22.948C62.1259 22.816 62.2639 22.66 62.3719 22.48C62.4799 22.288 62.5339 22.066 62.5339 21.814V15.604H64.8379V25H62.5339V23.434ZM67.5 15.604H69.804V26.134C69.804 26.926 69.606 27.532 69.21 27.952C68.814 28.384 68.184 28.6 67.32 28.6H66.06V26.764H67.5V15.604ZM68.652 14.236C68.172 14.236 67.824 14.128 67.608 13.912C67.404 13.696 67.302 13.42 67.302 13.084V12.724C67.302 12.388 67.404 12.112 67.608 11.896C67.824 11.68 68.172 11.572 68.652 11.572C69.12 11.572 69.462 11.68 69.678 11.896C69.894 12.112 70.002 12.388 70.002 12.724V13.084C70.002 13.42 69.894 13.696 69.678 13.912C69.462 14.128 69.12 14.236 68.652 14.236ZM79.3866 25C78.8826 25 78.4806 24.856 78.1806 24.568C77.8926 24.268 77.7126 23.872 77.6406 23.38H77.5326C77.3766 23.992 77.0586 24.454 76.5786 24.766C76.0986 25.066 75.5046 25.216 74.7966 25.216C73.8366 25.216 73.0986 24.964 72.5826 24.46C72.0666 23.956 71.8086 23.284 71.8086 22.444C71.8086 21.472 72.1566 20.752 72.8526 20.284C73.5486 19.804 74.5386 19.564 75.8226 19.564H77.4246V18.88C77.4246 18.352 77.2866 17.944 77.0106 17.656C76.7346 17.368 76.2906 17.224 75.6786 17.224C75.1386 17.224 74.7006 17.344 74.3646 17.584C74.0406 17.812 73.7646 18.088 73.5366 18.412L72.1686 17.188C72.5166 16.648 72.9786 16.216 73.5546 15.892C74.1306 15.556 74.8926 15.388 75.8406 15.388C77.1126 15.388 78.0786 15.676 78.7386 16.252C79.3986 16.828 79.7286 17.656 79.7286 18.736V23.164H80.6646V25H79.3866ZM75.5706 23.542C76.0866 23.542 76.5246 23.428 76.8846 23.2C77.2446 22.972 77.4246 22.636 77.4246 22.192V20.95H75.9486C74.7486 20.95 74.1486 21.334 74.1486 22.102V22.408C74.1486 22.792 74.2686 23.08 74.5086 23.272C74.7606 23.452 75.1146 23.542 75.5706 23.542ZM89.4413 25C88.9373 25 88.5353 24.856 88.2353 24.568C87.9473 24.268 87.7673 23.872 87.6953 23.38H87.5873C87.4313 23.992 87.1133 24.454 86.6333 24.766C86.1533 25.066 85.5593 25.216 84.8513 25.216C83.8913 25.216 83.1533 24.964 82.6373 24.46C82.1213 23.956 81.8633 23.284 81.8633 22.444C81.8633 21.472 82.2113 20.752 82.9073 20.284C83.6033 19.804 84.5933 19.564 85.8773 19.564H87.4793V18.88C87.4793 18.352 87.3413 17.944 87.0653 17.656C86.7893 17.368 86.3453 17.224 85.7333 17.224C85.1933 17.224 84.7553 17.344 84.4193 17.584C84.0953 17.812 83.8193 18.088 83.5913 18.412L82.2233 17.188C82.5713 16.648 83.0333 16.216 83.6093 15.892C84.1853 15.556 84.9473 15.388 85.8953 15.388C87.1673 15.388 88.1333 15.676 88.7933 16.252C89.4533 16.828 89.7833 17.656 89.7833 18.736V23.164H90.7193V25H89.4413ZM85.6253 23.542C86.1413 23.542 86.5793 23.428 86.9393 23.2C87.2993 22.972 87.4793 22.636 87.4793 22.192V20.95H86.0033C84.8033 20.95 84.2033 21.334 84.2033 22.102V22.408C84.2033 22.792 84.3233 23.08 84.5633 23.272C84.8153 23.452 85.1693 23.542 85.6253 23.542Z" fill="black"/>
</svg>
